<svg width="18" height="16" viewBox="0 0 18 16" fill="none" xmlns="http://www.w3.org/2000/svg">
<path d="M12.6426 1C14.777 1 16.4385 2.6551 16.4385 4.7959C16.4384 6.11065 15.8548 7.38619 14.6211 8.89551C13.3763 10.4184 11.5764 12.0546 9.31152 14.1084L9.31055 14.1094L8.71875 14.6475L8.12793 14.1094L8.12695 14.1084L6.5166 12.6416C4.99671 11.2435 3.75094 10.0376 2.81738 8.89551C1.58374 7.38621 1.00008 6.11063 1 4.7959C1 2.6551 2.66143 1 4.7959 1C6.01067 1.00008 7.19354 1.57073 7.96094 2.46484L8.71973 3.34863L9.47852 2.46484C10.2459 1.57089 11.428 1.00015 12.6426 1Z" stroke="#C0C0CC" stroke-width="2"/>
</svg>
