<svg width="15" height="17" viewBox="0 0 15 17" fill="none" xmlns="http://www.w3.org/2000/svg">
<path fill-rule="evenodd" clip-rule="evenodd" d="M9.00158 15.8849C9.00158 16.1189 8.9086 16.3434 8.74311 16.5089C8.57761 16.6744 8.35315 16.7673 8.1191 16.7673C7.88506 16.7673 7.6606 16.6744 7.4951 16.5089C7.32961 16.3434 7.23663 16.1189 7.23663 15.8849H9.00158ZM9.14877 13.9434C9.39163 13.9434 9.59001 14.1422 9.59001 14.3847C9.59001 14.6272 9.39163 14.8259 9.14877 14.8259H7.08979C6.84693 14.8259 6.64855 14.6272 6.64855 14.3847C6.64855 14.1422 6.84693 13.9434 7.08979 13.9434H9.14877ZM5.49887 5.49816C6.94612 4.0509 9.29244 4.0509 10.7397 5.49816C11.29 6.04842 11.6531 6.75795 11.7776 7.52615C11.9021 8.29435 11.7817 9.08225 11.4333 9.77815L9.86287 12.6984C9.83267 12.7545 9.78785 12.8014 9.73316 12.8341C9.67847 12.8668 9.61595 12.8841 9.55224 12.8841H6.68632C6.62261 12.8841 6.56009 12.8668 6.5054 12.8341C6.45071 12.8014 6.40589 12.7545 6.37569 12.6984L4.80489 9.77815C4.45645 9.08221 4.33594 8.29424 4.46044 7.52596C4.58494 6.75769 4.94813 6.0481 5.49851 5.49781L5.49887 5.49816ZM1.41196 7.41313C1.59919 7.41313 1.77876 7.48751 1.91116 7.6199C2.04356 7.7523 2.11793 7.93187 2.11793 8.1191C2.11793 8.30634 2.04356 8.48591 1.91116 8.61831C1.77876 8.7507 1.59919 8.82508 1.41196 8.82508H0.705978C0.518741 8.82508 0.339173 8.7507 0.206776 8.61831C0.0743796 8.48591 0 8.30634 0 8.1191C0 7.93187 0.0743796 7.7523 0.206776 7.6199C0.339173 7.48751 0.518741 7.41313 0.705978 7.41313H1.41196ZM13.8598 2.37809C13.9921 2.51048 14.0665 2.69002 14.0665 2.87722C14.0665 3.06442 13.9921 3.24395 13.8598 3.37634L13.3606 3.87547C13.2952 3.94119 13.2174 3.9933 13.1318 4.0288C13.0461 4.0643 12.9542 4.08249 12.8615 4.08232C12.7219 4.08229 12.5854 4.04087 12.4694 3.96329C12.3533 3.88572 12.2628 3.77547 12.2094 3.64649C12.156 3.51751 12.142 3.37558 12.1692 3.23865C12.1965 3.10173 12.2637 2.97595 12.3624 2.87722L12.8615 2.37809C12.9939 2.24574 13.1734 2.17139 13.3606 2.17139C13.5478 2.17139 13.7274 2.24574 13.8598 2.37809ZM3.37669 2.37809L3.87582 2.87722C3.94325 2.94234 3.99703 3.02024 4.03403 3.10637C4.07103 3.1925 4.09051 3.28514 4.09132 3.37888C4.09214 3.47262 4.07427 3.56558 4.03878 3.65235C4.00328 3.73911 3.95086 3.81793 3.88457 3.88422C3.81829 3.95051 3.73946 4.00293 3.6527 4.03842C3.56594 4.07392 3.47298 4.09178 3.37924 4.09097C3.2855 4.09015 3.19286 4.07068 3.10673 4.03368C3.02059 3.99668 2.94269 3.9429 2.87757 3.87547L2.37844 3.37634C2.31101 3.31122 2.25723 3.23332 2.22023 3.14718C2.18323 3.06105 2.16376 2.96841 2.16294 2.87467C2.16213 2.78094 2.17999 2.68797 2.21549 2.60121C2.25098 2.51445 2.3034 2.43562 2.36969 2.36934C2.43598 2.30305 2.5148 2.25063 2.60156 2.21513C2.68832 2.17964 2.78129 2.16177 2.87503 2.16259C2.96877 2.1634 3.06141 2.18288 3.14754 2.21988C3.23367 2.25688 3.31157 2.31066 3.37669 2.37809ZM8.1191 0C8.30634 0 8.48591 0.0743796 8.61831 0.206776C8.7507 0.339173 8.82508 0.518741 8.82508 0.705978V1.41196C8.82508 1.59919 8.7507 1.77876 8.61831 1.91116C8.48591 2.04356 8.30634 2.11794 8.1191 2.11794C7.93187 2.11794 7.7523 2.04356 7.6199 1.91116C7.48751 1.77876 7.41313 1.59919 7.41313 1.41196V0.705978C7.41313 0.518741 7.48751 0.339173 7.6199 0.206776C7.7523 0.0743796 7.93187 0 8.1191 0Z" fill="white"/>
</svg>
