<svg width="122" height="20" viewBox="0 0 122 20" fill="none" xmlns="http://www.w3.org/2000/svg">
<path d="M41.7677 12.2564C41.7677 11.8566 41.7966 11.7699 42.0246 11.5419L44.8535 8.91373C44.9385 8.82867 44.9674 8.74192 44.9674 8.62794V8.4C44.9674 8.17205 44.7667 8.00024 44.5677 8.00024H42.1674C41.9395 8.00024 41.7677 7.82843 41.7677 7.60048V0.399757C41.7677 0.17181 41.9395 0 42.1674 0H45.9388C46.1395 0 46.3385 0.17181 46.3385 0.399757V6.79927C46.3385 7.02722 46.5103 7.19903 46.7383 7.19903H46.9662C47.0802 7.19903 47.167 7.17011 47.252 7.08505L50.3089 4.25613C50.5368 4.02819 50.6236 3.99927 50.9944 3.99927H54.1653C56.5655 3.99927 57.7648 5.19854 57.7648 7.59878V11.8277C57.7648 12.2275 57.7359 12.3414 57.5079 12.5422L49.7373 19.7412C49.5094 19.9691 49.4226 19.998 49.0229 19.998H45.3655C42.9653 19.998 41.766 18.7988 41.766 16.3985V12.2564H41.7677ZM52.7959 8.00024H46.74C46.512 8.00024 46.3402 8.17205 46.3402 8.4V15.599C46.3402 15.827 46.512 15.9988 46.74 15.9988H52.7959C52.9966 15.9988 53.1956 15.827 53.1956 15.599V8.4C53.1956 8.17205 52.9949 8.00024 52.7959 8.00024Z" fill="white"/>
<path d="M58.4819 16.3985V12.1696C58.4819 11.7699 58.5108 11.6848 58.7387 11.4552L66.5093 4.25613C66.7373 4.02819 66.824 3.99927 67.2238 3.99927H71.1669C73.5672 3.99927 74.7664 5.19854 74.7664 7.59878V11.8277C74.7664 12.2275 74.7375 12.3125 74.5096 12.5422L66.739 19.7412C66.511 19.9691 66.4243 19.998 66.0245 19.998H62.0814C59.6811 19.998 58.4819 18.7988 58.4819 16.3985ZM63.4525 15.9988H69.7941C70.0221 15.9988 70.1939 15.827 70.1939 15.599V8.39999C70.1939 8.17205 70.0221 8.00024 69.7941 8.00024H63.4525C63.2517 8.00024 63.0527 8.17205 63.0527 8.39999V15.599C63.0527 15.827 63.2517 15.9988 63.4525 15.9988Z" fill="white"/>
<path d="M75.4775 16.3985V12.1696C75.4775 11.7699 75.5064 11.6848 75.7343 11.4552L83.5049 4.25613C83.7329 4.02819 83.8196 3.99927 84.2194 3.99927H88.1625C90.5628 3.99927 91.762 5.19854 91.762 7.59878V11.8277C91.762 12.2275 91.7331 12.3125 91.5052 12.5422L83.7346 19.7412C83.5066 19.9691 83.4199 19.998 83.0201 19.998H79.077C76.6767 19.998 75.4775 18.7988 75.4775 16.3985ZM80.4481 15.9988H86.7897C87.0177 15.9988 87.1895 15.827 87.1895 15.599V8.39999C87.1895 8.17205 87.0177 8.00024 86.7897 8.00024H80.4481C80.2473 8.00024 80.0483 8.17205 80.0483 8.39999V15.599C80.0483 15.827 80.249 15.9988 80.4481 15.9988Z" fill="white"/>
<path d="M90.0467 19.3415L93.2464 16.3986C93.5033 16.1707 93.7601 15.9989 94.2756 15.9989H101.818C102.019 15.9989 102.218 15.8271 102.218 15.5991V11.2852C102.218 10.9994 102.39 10.8565 102.818 10.8565H106.333C106.59 10.8565 106.733 10.9994 106.733 11.2562V12.2565C106.733 12.4572 106.675 12.6001 106.532 12.7413L98.8192 19.8842C98.7341 19.9692 98.6474 19.9982 98.5334 19.9982H90.3052C89.8204 19.9982 89.6775 19.6835 90.0484 19.3415H90.0467ZM92.7038 11.7989C92.7038 11.5982 92.7616 11.4553 92.9045 11.3124L100.646 4.11335C100.731 4.02829 100.818 3.99937 100.932 3.99937H108.703V0.685646C108.703 0.457699 108.874 0.285889 109.102 0.285889H112.302C113.073 0.285889 113.273 0.457699 113.273 0.685646V6.79937C113.273 7.05624 113.387 7.19913 113.617 7.19913C113.76 7.19913 113.874 7.17021 114.017 7.02732L117.131 4.11335C117.217 4.02829 117.303 3.99937 117.388 3.99937H121.388C121.845 3.99937 121.959 4.39913 121.673 4.68492L118.36 7.88467C118.275 7.96972 118.188 7.99864 118.074 7.99864H113.675C113.447 7.99864 113.275 8.17045 113.275 8.3984V15.5974C113.275 15.8254 113.447 15.9972 113.675 15.9972H121.388C121.845 15.9972 121.959 16.3969 121.673 16.6827L118.36 19.8825C118.275 19.9675 118.188 19.9965 118.074 19.9965H112.304C109.904 19.9965 108.704 18.7972 108.704 16.3969V11.855C108.704 11.741 108.733 11.6543 108.818 11.5692L111.79 8.74032C111.904 8.62635 111.962 8.56851 111.962 8.36948C111.962 8.14154 111.819 7.99864 111.562 7.99864H109.077C108.849 7.99864 108.677 7.82683 108.677 7.59889V5.19864C108.677 4.99792 108.505 4.79889 108.277 4.79889H108.049C107.935 4.79889 107.85 4.82781 107.764 4.91286L104.992 7.88467C104.907 7.96972 104.821 7.99864 104.707 7.99864H97.6505C97.4515 7.99864 97.2508 8.17045 97.2508 8.3984V12.7124C97.2508 12.9982 97.079 13.141 96.6503 13.141H93.1069C92.8501 13.141 92.7072 12.9982 92.7072 12.7413V11.7989H92.7038Z" fill="white"/>
<path fill-rule="evenodd" clip-rule="evenodd" d="M8.74192 3.99964L31.5019 3.99963V4.00304C33.9021 4.00304 35.1014 5.20231 35.1014 7.60255V11.8298C35.1014 12.2295 35.0725 12.3163 34.8445 12.5442L27.0722 19.7432C26.8443 19.9712 26.7592 20.0001 26.3595 20.0001L3.59951 20.0001C1.19927 20.0001 0 18.7991 0 16.4006V12.1717C0 11.7719 0.0289186 11.6852 0.256865 11.4572L8.02746 4.25651C8.2554 4.02856 8.34216 3.99964 8.74192 3.99964ZM16.3857 14.0465C17.3403 14.0465 17.9055 13.6252 17.9055 12.9213C17.9055 12.4147 17.6122 12.0574 16.887 11.8707L16.231 11.7161C15.9004 11.6254 15.7671 11.4814 15.7671 11.2628C15.7671 10.9908 15.9911 10.8148 16.3644 10.8148C16.7003 10.8148 16.967 10.9642 17.0256 11.3481H17.8149C17.7562 10.6602 17.2549 10.2602 16.3857 10.2602C15.4631 10.2602 14.9405 10.6815 14.9405 11.3321C14.9405 11.8334 15.2338 12.18 15.8524 12.34L16.503 12.4893C16.903 12.596 17.063 12.7507 17.063 13.0066C17.063 13.3106 16.807 13.4919 16.4177 13.4919C16.0017 13.4919 15.7404 13.3106 15.6818 12.9373H14.8818C14.9458 13.6679 15.4631 14.0465 16.3857 14.0465ZM9.55214 13.9985H8.12295V10.3189H9.55214C10.72 10.3189 11.2373 10.9428 11.2373 12.1587C11.2373 13.3746 10.72 13.9985 9.55214 13.9985ZM8.92287 10.9588V13.3586H9.51481C10.1388 13.3586 10.4001 12.9426 10.4001 12.1587C10.4001 11.3695 10.1388 10.9588 9.51481 10.9588H8.92287ZM14.4172 13.9985H11.8895V10.3189H14.3905V10.9535H12.6307V11.8174H14.1346V12.42H12.6307V13.3693H14.4172V13.9985ZM19.3167 13.9985H18.5168V10.3189H19.3167V13.9985ZM21.5247 14.0519C22.17 14.0519 22.4846 13.7212 22.6393 13.3586H22.7459L22.6553 13.7106V13.9985H23.2152V12.0307H21.5461V12.5373H22.426C22.3886 13.0706 22.154 13.4119 21.6687 13.4119C21.1194 13.4119 20.8155 12.9693 20.8155 12.1694C20.8155 11.3481 21.1194 10.9055 21.658 10.9055C22.0633 10.9055 22.3246 11.1668 22.3993 11.5934H23.2206C23.1352 10.7722 22.586 10.2656 21.658 10.2656C20.5861 10.2656 19.9889 10.9482 19.9889 12.1587C19.9889 13.3693 20.5915 14.0519 21.5247 14.0519ZM24.6393 13.9985H23.9193V10.3189H24.7192L26.1164 12.4573L26.2338 12.7933H26.3511L26.3031 12.4307L26.2818 10.3189H26.9964V13.9985H26.2018L24.8152 11.8547L24.6926 11.5241H24.5806L24.6233 11.8867L24.6393 13.9985Z" fill="white"/>
</svg>
